<svg xmlns="http://www.w3.org/2000/svg" width="1200" height="700" viewBox="0 0 1200 700"><rect width="1200" height="700" fill="#fff"/><style>.t{font:700 28px Arial;fill:#0f172a}.h{font:700 18px Arial;fill:#0f172a}.b{font:15px Arial;fill:#334155}.box{fill:#f8fafc;stroke:#334155;stroke-width:2}.sec{fill:#eef2ff;stroke:#4338ca;stroke-width:2}.data{fill:#ecfeff;stroke:#0891b2;stroke-width:2}.ctrl{fill:#f0fdf4;stroke:#15803d;stroke-width:2}.warn{fill:#fff7ed;stroke:#c2410c;stroke-width:2}.arr{stroke:#475569;stroke-width:3;fill:none;marker-end:url(#a)}</style><defs><marker id="a" markerWidth="10" markerHeight="10" refX="8" refY="3" orient="auto"><path d="M0,0 L0,6 L9,3 z" fill="#475569"/></marker></defs><text x="40" y="48" class="t">Secure M365 Copilot Agent Lab — Solution Overview</text><rect x="50" y="110" width="180" height="90" rx="12" class="sec"/><text x="85" y="145" class="h">M365 User</text><text x="72" y="173" class="b">Entra authenticated</text><rect x="290" y="110" width="200" height="90" rx="12" class="sec"/><text x="322" y="145" class="h">M365 Copilot</text><text x="315" y="173" class="b">Declarative agent</text><rect x="550" y="85" width="250" height="140" rx="12" class="data"/><text x="610" y="125" class="h">Knowledge</text><text x="585" y="155" class="b">SharePoint / OneDrive</text><text x="580" y="185" class="b">Clean + adversarial docs</text><rect x="550" y="285" width="250" height="140" rx="12" class="ctrl"/><text x="602" y="325" class="h">Security Actions API</text><text x="585" y="355" class="b">Identity • validation</text><text x="590" y="385" class="b">Authorization gateway</text><rect x="860" y="285" width="250" height="140" rx="12" class="warn"/><text x="915" y="325" class="h">Human Approval</text><text x="900" y="355" class="b">Separate approver identity</text><text x="910" y="385" class="b">Privileged only</text><rect x="550" y="500" width="250" height="110" rx="12" class="data"/><text x="625" y="540" class="h">PostgreSQL</text><text x="590" y="570" class="b">State + approvals + audit</text><rect x="860" y="500" width="250" height="110" rx="12" class="sec"/><text x="925" y="540" class="h">Evaluation</text><text x="895" y="570" class="b">Corpus • live tests • CI</text><path d="M230 155 H290" class="arr"/><path d="M490 145 H550" class="arr"/><path d="M490 175 C520 220 520 335 550 350" class="arr"/><path d="M800 355 H860" class="arr"/><path d="M675 425 V500" class="arr"/><path d="M985 425 V500" class="arr"/><path d="M800 555 H860" class="arr"/></svg>